<svg xmlns="http://www.w3.org/2000/svg" width="64" height="64" viewBox="0 0 64 64" fill="none">
  <!-- Fundo com contorno para contraste -->
  <circle cx="32" cy="32" r="28" fill="#ffffff" fill-opacity="0.05" stroke="#22C55E" stroke-width="1.5" stroke-opacity="0.8"/>
  
  <!-- Monograma M com contorno para legibilidade -->
  <path d="M16 44 L16 22 C16 20.8954 16.8954 20 18 20 H22 C22.8 20 23.55 20.48 23.86 21.22 L30.5 36.7 C30.74 37.25 31.51 37.25 31.75 36.7 L38.4 21.22 C38.71 20.48 39.46 20 40.26 20 H46 C47.1046 20 48 20.8954 48 22 V44 C48 45.1046 47.1046 46 46 46 H44 C42.8954 46 42 45.1046 42 44 V31.8 C42 31.27 41.28 31.12 41.04 31.59 L35.7 42.04 C35.27 42.9 34.39 43.46 33.41 43.5 C32.35 43.54 31.38 42.97 30.94 42.07 L27.98 36.02 C27.78 35.62 27.18 35.65 26.99 36.07 L23.38 44.11 C23 44.95 22.15 45.5 21.22 45.5 H18 C16.8954 45.5 16 44.6046 16 43.5 V44 Z" fill="#22C55E" stroke="#ffffff" stroke-width="0.8" stroke-opacity="0.3"/>
  
  <!-- Ponto/acento com contorno -->
  <circle cx="49" cy="18.5" r="2" fill="#16A34A" stroke="#ffffff" stroke-width="0.5" stroke-opacity="0.4"/>
</svg>