<svg width="1200" height="630" viewBox="0 0 1200 630" fill="none" xmlns="http://www.w3.org/2000/svg">
  <!-- Background Gradient -->
  <defs>
    <linearGradient id="bgGradient" x1="0%" y1="0%" x2="100%" y2="100%">
      <stop offset="0%" style="stop-color:#0ea5e9;stop-opacity:1" />
      <stop offset="100%" style="stop-color:#2563eb;stop-opacity:1" />
    </linearGradient>
    <linearGradient id="cardGradient" x1="0%" y1="0%" x2="100%" y2="100%">
      <stop offset="0%" style="stop-color:#ffffff;stop-opacity:0.1" />
      <stop offset="100%" style="stop-color:#ffffff;stop-opacity:0.05" />
    </linearGradient>
  </defs>
  
  <!-- Background -->
  <rect width="1200" height="630" fill="url(#bgGradient)"/>
  
  <!-- Decorative Elements -->
  <circle cx="1100" cy="100" r="80" fill="#ffffff" opacity="0.1"/>
  <circle cx="100" cy="530" r="60" fill="#ffffff" opacity="0.1"/>
  <circle cx="1050" cy="500" r="40" fill="#fbbf24" opacity="0.3"/>
  
  <!-- Main Content Card -->
  <rect x="80" y="80" width="1040" height="470" rx="20" fill="url(#cardGradient)" stroke="#ffffff" stroke-width="1" opacity="0.2"/>
  
  <!-- Logo/Brand -->
  <text x="120" y="150" font-family="Arial, sans-serif" font-size="48" font-weight="bold" fill="#ffffff">
    MediFlow
  </text>
  
  <!-- Main Headline -->
  <text x="120" y="220" font-family="Arial, sans-serif" font-size="42" font-weight="bold" fill="#ffffff">
    Aumente sua receita em
  </text>
  <text x="120" y="270" font-family="Arial, sans-serif" font-size="42" font-weight="bold" fill="#fbbf24">
    até 300% em 90 dias
  </text>
  
  <!-- Subtitle -->
  <text x="120" y="320" font-family="Arial, sans-serif" font-size="24" fill="#e0f2fe">
    Mais de 2.500 médicos já aumentaram seus lucros
  </text>
  <text x="120" y="350" font-family="Arial, sans-serif" font-size="24" fill="#e0f2fe">
    com nossa plataforma de CRM médico + IA
  </text>
  
  <!-- Features Icons and Text -->
  <g transform="translate(120, 400)">
    <!-- CRM Icon -->
    <rect x="0" y="0" width="40" height="40" rx="8" fill="#fbbf24"/>
    <text x="50" y="25" font-family="Arial, sans-serif" font-size="18" fill="#ffffff">CRM Completo</text>
    
    <!-- AI Icon -->
    <rect x="200" y="0" width="40" height="40" rx="8" fill="#fbbf24"/>
    <text x="250" y="25" font-family="Arial, sans-serif" font-size="18" fill="#ffffff">IA Contextual</text>
    
    <!-- Automation Icon -->
    <rect x="400" y="0" width="40" height="40" rx="8" fill="#fbbf24"/>
    <text x="450" y="25" font-family="Arial, sans-serif" font-size="18" fill="#ffffff">Automação 24/7</text>
  </g>
  
  <!-- Call to Action Badge -->
  <rect x="120" y="480" width="280" height="40" rx="20" fill="#fbbf24"/>
  <text x="260" y="505" font-family="Arial, sans-serif" font-size="16" font-weight="bold" fill="#1e40af" text-anchor="middle">
    🔥 30 DIAS GRÁTIS
  </text>
  
  <!-- Right Side Illustration -->
  <g transform="translate(700, 150)">
    <!-- Phone/Dashboard Mockup -->
    <rect x="0" y="0" width="200" height="300" rx="20" fill="#ffffff" opacity="0.9"/>
    <rect x="20" y="30" width="160" height="20" rx="10" fill="#e5e7eb"/>
    <rect x="20" y="70" width="160" height="15" rx="7" fill="#e5e7eb"/>
    <rect x="20" y="100" width="120" height="15" rx="7" fill="#e5e7eb"/>
    
    <!-- Chart/Graph -->
    <rect x="20" y="140" width="160" height="100" rx="8" fill="#0ea5e9" opacity="0.1"/>
    <polyline points="30,220 60,200 90,180 120,160 150,140 170,130" stroke="#0ea5e9" stroke-width="3" fill="none"/>
    <circle cx="170" cy="130" r="4" fill="#fbbf24"/>
    
    <!-- Stats -->
    <text x="100" y="270" font-family="Arial, sans-serif" font-size="14" font-weight="bold" fill="#0ea5e9" text-anchor="middle">
      +300% ROI
    </text>
  </g>
</svg>